<svg width="161" height="43" viewBox="0 0 161 43" fill="none" xmlns="http://www.w3.org/2000/svg">
    <path d="M76.808 13.9353L78.011 9.23401H79.9872L77.5936 17.986H75.6051L76.2925 15.5924H74.8072L73.1133 9.23401H75.0895L76.2434 13.9353H76.808Z" fill="black" style="fill:black;fill-opacity:1;"/>
    <path d="M69.837 15.7398C68.8428 15.7398 68.1308 15.2733 67.7994 14.7209H67.738V15.5925H65.9336V7H67.8485V9.99508H67.9099C68.2167 9.54091 68.8796 9.08674 69.837 9.08674C71.3714 9.08674 72.7462 10.3511 72.7462 12.4132C72.7462 14.4754 71.3714 15.7398 69.837 15.7398ZM69.3338 14.0826C70.2053 14.0826 70.7822 13.4443 70.7822 12.4132C70.7822 11.3699 70.2053 10.7439 69.3338 10.7439C68.4131 10.7439 67.8485 11.3699 67.8485 12.4132C67.8485 13.4566 68.4131 14.0826 69.3338 14.0826Z" fill="black" style="fill:black;fill-opacity:1;"/>
    <path d="M52.8184 13.6023V15.8809H55.1355V25.2934H57.9348V13.6023H52.8184Z" fill="#010101" style="fill:#010101;fill:color(display-p3 0.0039 0.0039 0.0039);fill-opacity:1;"/>
    <path d="M3.89208 30.6449H1.08789V42.336H6.2043V40.0573H3.88716V30.6449H3.89208Z" fill="#010101" style="fill:#010101;fill:color(display-p3 0.0039 0.0039 0.0039);fill-opacity:1;"/>
    <path d="M55.1296 40.0573H52.8125V42.336H57.9289V30.6449H55.1296V40.0573Z" fill="#010101" style="fill:#010101;fill:color(display-p3 0.0039 0.0039 0.0039);fill-opacity:1;"/>
    <path d="M1.08724 25.2934H3.88651V19.1971H5.7904V16.9433H3.88651V15.8809H6.20365V15.8561V13.6023H1.0774V16.9433H0V19.1971H1.0774V25.2934H1.09216H1.08724Z" fill="#010101" style="fill:#010101;fill:color(display-p3 0.0039 0.0039 0.0039);fill-opacity:1;"/>
    <path d="M10.5086 16.3575C7.77819 16.3575 5.70703 18.4475 5.70703 20.9496C5.70703 23.4516 7.77819 25.5416 10.5086 25.5416C13.239 25.5416 15.3101 23.4516 15.3101 20.9496C15.3101 18.4475 13.239 16.3575 10.5086 16.3575ZM10.5086 23.124C9.43119 23.124 8.60469 22.29 8.60469 20.9545C8.60469 19.6191 9.43119 18.7851 10.5086 18.7851C11.586 18.7851 12.4125 19.6191 12.4125 20.9545C12.4125 22.29 11.586 23.124 10.5086 23.124Z" fill="#010101" style="fill:#010101;fill:color(display-p3 0.0039 0.0039 0.0039);fill-opacity:1;"/>
    <path d="M20.273 18.7802C21.5127 18.7802 21.926 19.9518 21.926 19.9518H24.8236C24.8236 19.9518 24.2431 16.3625 20.273 16.3625C17.7098 16.3625 15.6387 18.4525 15.6387 20.9595C15.6387 23.4665 17.7098 25.5516 20.273 25.5516C24.2431 25.5516 24.8236 21.9623 24.8236 21.9623H21.926C21.926 21.9623 21.5963 23.129 20.273 23.129C19.3628 23.129 18.5363 22.295 18.5363 20.9595C18.5363 19.6241 19.3628 18.7901 20.273 18.7901V18.7802Z" fill="#010101" style="fill:#010101;fill:color(display-p3 0.0039 0.0039 0.0039);fill-opacity:1;"/>
    <path d="M31.5299 21.2028C31.5299 22.3694 30.7871 23.124 29.8769 23.124C28.9668 23.124 28.3863 22.5382 28.3863 21.5354V16.6107H25.5723V21.9573C25.5723 24.2955 26.812 25.5466 28.7995 25.5466C30.6198 25.5466 31.3627 24.1268 31.3627 24.1268H31.5299V25.2934H34.344V16.6107H31.5299V21.2028Z" fill="#010101" style="fill:#010101;fill:color(display-p3 0.0039 0.0039 0.0039);fill-opacity:1;"/>
    <path d="M38.3139 19.0283C38.3139 18.6957 38.6435 18.4425 39.3076 18.4425C40.4638 18.4425 40.631 19.2765 40.631 19.2765H43.3614C43.3614 19.2765 42.8793 16.3525 39.1404 16.3525C36.6412 16.3525 35.4162 17.6582 35.4162 19.0234C35.4162 22.3644 40.5474 21.6098 40.5474 22.7814C40.5474 23.114 40.2178 23.3672 39.3864 23.3672C38.063 23.3672 37.8121 22.4488 37.8121 22.4488H34.998C34.998 22.4488 35.4949 25.5366 39.3864 25.5366C42.1168 25.5366 43.4401 24.2012 43.4401 22.697C43.4401 19.356 38.309 20.19 38.309 19.0234L38.3139 19.0283Z" fill="#010101" style="fill:#010101;fill:color(display-p3 0.0039 0.0039 0.0039);fill-opacity:1;"/>
    <path d="M3.74372 7.84867C3.74372 6.67708 4.48658 5.92746 5.39671 5.92746C6.30684 5.92746 6.88736 6.51326 6.88736 7.51606V12.4407H9.70139V7.09409C9.70139 4.75587 8.46164 3.50485 6.47411 3.50485C4.65385 3.50485 3.91098 4.92466 3.91098 4.92466H3.74372V0.749634H0.929688V12.4407H3.74372V7.84867Z" fill="#010101" style="fill:#010101;fill:color(display-p3 0.0039 0.0039 0.0039);fill-opacity:1;"/>
    <path d="M12.2637 2.83961C13.1296 2.83961 13.838 2.20418 13.838 1.41981C13.838 0.635438 13.1345 0 12.2637 0C11.393 0 10.6895 0.635438 10.6895 1.41981C10.6895 2.20418 11.393 2.83961 12.2637 2.83961Z" fill="#010101" style="fill:#010101;fill:color(display-p3 0.0039 0.0039 0.0039);fill-opacity:1;"/>
    <path d="M13.6715 3.75806H10.8574V12.4407H13.6715V3.75806Z" fill="#010101" style="fill:#010101;fill:color(display-p3 0.0039 0.0039 0.0039);fill-opacity:1;"/>
    <path d="M18.3898 12.3612C20.2101 12.3612 20.953 11.1102 20.953 11.1102H21.1202V13.364H15.7431V15.6178H23.9342V3.75798H21.1202V4.84518H20.953C20.953 4.84518 20.2101 3.50977 18.3898 3.50977C16.3187 3.50977 14.582 5.26218 14.582 7.93797C14.582 10.6138 16.3187 12.3662 18.3898 12.3662V12.3612ZM19.3 5.93237C20.3774 5.93237 21.1202 6.68199 21.1202 7.93797C21.1202 9.19396 20.3774 9.94358 19.3 9.94358C18.2226 9.94358 17.4797 9.19396 17.4797 7.93797C17.4797 6.68199 18.2226 5.93237 19.3 5.93237Z" fill="#010101" style="fill:#010101;fill:color(display-p3 0.0039 0.0039 0.0039);fill-opacity:1;"/>
    <path d="M27.9039 7.84867C27.9039 6.67708 28.6467 5.92746 29.5569 5.92746C30.467 5.92746 31.0475 6.51326 31.0475 7.51606V12.4407H33.8615V7.09409C33.8615 4.75587 32.6218 3.50485 30.6343 3.50485C28.814 3.50485 28.0711 4.92466 28.0711 4.92466H27.9039V0.749634H25.0898V12.4407H27.9039V7.84867Z" fill="#010101" style="fill:#010101;fill:color(display-p3 0.0039 0.0039 0.0039);fill-opacity:1;"/>
    <path d="M38.8414 2.54676C39.0037 2.54676 39.0824 2.4574 39.0824 2.35315C39.0824 2.24889 39.0037 2.15954 38.8414 2.15954H38.5511V2.55172H38.8414V2.54676ZM37.6754 1.41985H38.8856C39.6138 1.41985 40.0024 1.81203 40.0024 2.29854C40.0024 2.88433 39.5646 3.03326 39.5646 3.03326L40.0959 3.81763H39.1759L38.7381 3.18219H38.5462V3.81763H37.6754V1.41985ZM38.743 4.50271C39.8105 4.50271 40.5878 3.81763 40.5878 2.69072C40.5878 1.56381 39.8105 0.878731 38.743 0.878731C37.6754 0.878731 36.8981 1.56381 36.8981 2.69072C36.8981 3.81763 37.6754 4.50271 38.743 4.50271ZM38.743 0.0496826C40.2828 0.0496826 41.4586 1.22624 41.4586 2.69072C41.4586 4.15521 40.2828 5.33176 38.743 5.33176C37.2031 5.33176 36.0273 4.15521 36.0273 2.69072C36.0273 1.22624 37.2031 0.0496826 38.743 0.0496826Z" fill="#1D1D1B" style="fill:#1D1D1B;fill:color(display-p3 0.1137 0.1137 0.1059);fill-opacity:1;"/>
    <g clip-path="url(#clip0_891_4452)">
        <path d="M90.4154 17.9141H94.5454C94.314 17.2335 93.9131 16.7188 93.3373 16.3671C92.7615 16.0154 92.0728 15.8409 91.2737 15.8409C90.8943 15.8409 90.5042 15.9067 90.1087 16.0411C89.7131 16.1755 89.3392 16.3785 88.9894 16.6559L88.0746 14.74C88.4244 14.4112 88.9167 14.1109 89.5544 13.8478C90.1894 13.5819 90.9589 13.4475 91.8602 13.4475C92.6216 13.4475 93.3239 13.5876 93.9696 13.8621C94.6153 14.1395 95.175 14.5313 95.6512 15.0345C96.1274 15.5407 96.496 16.1469 96.7624 16.8532C97.0261 17.5624 97.1606 18.3516 97.1606 19.2238C97.1606 20.0959 97.0314 20.9223 96.7705 21.6401C96.5095 22.3578 96.1355 22.964 95.6458 23.4587C95.1561 23.9534 94.5642 24.3337 93.8727 24.5997C93.1813 24.8656 92.4064 24.9971 91.5454 24.9971C91.1633 24.9971 90.7974 24.9657 90.4423 24.8999C90.0871 24.837 89.7535 24.7512 89.4441 24.6454C89.1347 24.5396 88.8549 24.4167 88.61 24.2794C88.3652 24.1421 88.1607 23.9934 88.002 23.8333L89.0217 21.6801C89.2934 21.926 89.6405 22.1405 90.0656 22.3263C90.4907 22.5122 90.9696 22.6066 91.4997 22.6066C91.8494 22.6066 92.1911 22.5637 92.5194 22.4779C92.8503 22.395 93.1544 22.2577 93.4342 22.0718C93.714 21.886 93.9588 21.6486 94.1687 21.3627C94.3786 21.0767 94.5346 20.725 94.6342 20.3104H90.4154V17.9169V17.9141Z" fill="#509E2F" style="fill:#509E2F;fill:color(display-p3 0.3137 0.6196 0.1843);fill-opacity:1;"/>
        <path d="M98.1836 13.6392H100.586V18.5061L104.025 13.6392H106.906L102.959 18.792L107.224 24.8085H104.175L100.586 19.4955V24.8085H98.1836V13.6392Z" fill="#509E2F" style="fill:#509E2F;fill:color(display-p3 0.3137 0.6196 0.1843);fill-opacity:1;"/>
        <path d="M106.072 19.2238C106.072 18.4145 106.207 17.6596 106.479 16.959C106.748 16.2584 107.127 15.6465 107.611 15.1232C108.096 14.6028 108.682 14.191 109.368 13.8936C110.054 13.5962 110.818 13.4475 111.658 13.4475C112.497 13.4475 113.2 13.5819 113.88 13.8478C114.561 14.1138 115.15 14.497 115.651 14.9974C116.151 15.4978 116.541 16.104 116.821 16.816C117.101 17.5281 117.241 18.3316 117.241 19.2266C117.241 20.1216 117.101 20.8565 116.821 21.5657C116.541 22.272 116.151 22.8811 115.651 23.3929C115.15 23.9048 114.561 24.2994 113.88 24.5825C113.2 24.8656 112.46 25.0057 111.658 25.0057C110.856 25.0057 110.116 24.8713 109.435 24.6082C108.755 24.3423 108.166 23.9591 107.665 23.4587C107.165 22.9583 106.774 22.3521 106.495 21.6401C106.215 20.928 106.075 20.1245 106.075 19.2295M108.628 19.2295C108.628 19.707 108.709 20.156 108.868 20.5706C109.026 20.9852 109.244 21.3455 109.513 21.6486C109.783 21.9517 110.103 22.1891 110.474 22.3578C110.845 22.5294 111.241 22.6123 111.661 22.6123C112.161 22.6123 112.6 22.5236 112.974 22.3492C113.35 22.1719 113.665 21.9346 113.921 21.6315C114.176 21.3284 114.37 20.9681 114.499 20.5534C114.628 20.1388 114.693 19.6984 114.693 19.2295C114.693 18.7176 114.615 18.2572 114.461 17.8426C114.305 17.428 114.09 17.0705 113.816 16.7731C113.541 16.4757 113.218 16.247 112.847 16.0869C112.476 15.9267 112.08 15.8467 111.661 15.8467C111.241 15.8467 110.816 15.9267 110.444 16.0869C110.073 16.247 109.753 16.4757 109.484 16.7731C109.215 17.0705 109.002 17.428 108.854 17.8426C108.704 18.2572 108.628 18.7205 108.628 19.2295Z" fill="#509E2F" style="fill:#509E2F;fill:color(display-p3 0.3137 0.6196 0.1843);fill-opacity:1;"/>
        <path d="M124.501 20.3104H120.672V24.8085H118.27V13.6392H120.672V17.9142H124.501V13.6392H126.904V24.8085H124.501V20.3104Z" fill="#509E2F" style="fill:#509E2F;fill:color(display-p3 0.3137 0.6196 0.1843);fill-opacity:1;"/>
        <path d="M128.104 24.8085V13.6392H130.506V20.5792L135.161 13.6392H137.262V24.8085H134.859V17.8684L130.205 24.8085H128.104Z" fill="#215732" style="fill:#215732;fill:color(display-p3 0.1294 0.3412 0.1961);fill-opacity:1;"/>
        <path d="M149.663 13.6392H151.807L156.171 24.8085H153.618L152.746 22.4637H148.576L147.701 24.8085H145.299L149.663 13.6392ZM149.477 20.0702H151.84L150.666 16.9105L149.477 20.0702Z" fill="#509E2F" style="fill:#509E2F;fill:color(display-p3 0.3137 0.6196 0.1843);fill-opacity:1;"/>
        <path d="M98.1836 1.19153H106.145V3.58495H100.586V5.54659H105.693V7.94001H100.586V9.96741H106.293V12.3608H98.1836V1.19153Z" fill="#509E2F" style="fill:#509E2F;fill:color(display-p3 0.3137 0.6196 0.1843);fill-opacity:1;"/>
        <path d="M107.531 1.19153H109.934V6.05844L113.372 1.19153H116.257L112.307 6.34439L116.571 12.3608H113.523L109.934 7.04784V12.3608H107.531V1.19153Z" fill="#509E2F" style="fill:#509E2F;fill:color(display-p3 0.3137 0.6196 0.1843);fill-opacity:1;"/>
        <path d="M115.805 6.77624C115.805 5.967 115.939 5.21208 116.211 4.5115C116.48 3.80805 116.859 3.19612 117.344 2.67568C117.828 2.15525 118.415 1.74348 119.101 1.44609C119.787 1.1487 120.551 1 121.39 1C122.23 1 122.932 1.1344 123.613 1.40033C124.293 1.66627 124.883 2.04945 125.383 2.54986C125.883 3.05028 126.274 3.6565 126.553 4.36852C126.833 5.08054 126.973 5.88407 126.973 6.7791C126.973 7.67413 126.833 8.40903 126.553 9.11533C126.274 9.82164 125.883 10.4307 125.383 10.9426C124.883 11.4544 124.293 11.849 123.613 12.1321C122.932 12.4152 122.192 12.5553 121.39 12.5553C120.588 12.5553 119.849 12.4238 119.168 12.1579C118.487 11.8919 117.898 11.5088 117.397 11.0083C116.897 10.5079 116.507 9.9017 116.227 9.18968C115.947 8.47766 115.807 7.67413 115.807 6.7791M118.361 6.7791C118.361 7.25664 118.441 7.70559 118.6 8.12022C118.759 8.53485 118.977 8.89515 119.246 9.19826C119.515 9.50137 119.835 9.73871 120.206 9.90742C120.578 10.0761 120.973 10.1619 121.393 10.1619C121.893 10.1619 122.332 10.0733 122.706 9.89884C123.083 9.72441 123.397 9.48421 123.653 9.1811C123.909 8.87799 124.1 8.51769 124.231 8.10306C124.361 7.68843 124.428 7.24806 124.428 6.7791C124.428 6.26725 124.35 5.80686 124.194 5.38937C124.038 4.97474 123.823 4.6173 123.548 4.31991C123.274 4.02252 122.951 3.79376 122.579 3.63362C122.208 3.47349 121.813 3.39342 121.393 3.39342C120.973 3.39342 120.548 3.47349 120.177 3.63362C119.806 3.79376 119.485 4.02252 119.216 4.31991C118.947 4.6173 118.735 4.97474 118.587 5.38937C118.436 5.804 118.361 6.26725 118.361 6.7791Z" fill="#509E2F" style="fill:#509E2F;fill:color(display-p3 0.3137 0.6196 0.1843);fill-opacity:1;"/>
        <path d="M135.341 12.3608L130.356 5.66097V12.3608H128.104V1.19153H130.025L135.01 7.92571V1.19153H137.262V12.3608H135.341Z" fill="#215732" style="fill:#215732;fill:color(display-p3 0.1294 0.3412 0.1961);fill-opacity:1;"/>
        <path d="M140.864 1.19153H138.461V12.3608H140.864V1.19153Z" fill="#509E2F" style="fill:#509E2F;fill:color(display-p3 0.3137 0.6196 0.1843);fill-opacity:1;"/>
        <path d="M154.491 1.19153H156.635L160.999 12.3608H158.446L157.574 10.016H153.404L152.53 12.3608H150.127L154.491 1.19153ZM154.305 7.6226H156.668L155.495 4.46283L154.305 7.6226Z" fill="#509E2F" style="fill:#509E2F;fill:color(display-p3 0.3137 0.6196 0.1843);fill-opacity:1;"/>
        <path d="M150.281 1.19153L147.2 9.07524L144.122 1.19153H141.553L145.917 12.3608H148.486L152.848 1.19153H150.281Z" fill="#509E2F" style="fill:#509E2F;fill:color(display-p3 0.3137 0.6196 0.1843);fill-opacity:1;"/>
        <path d="M138.461 13.6705C138.612 13.6591 138.805 13.6505 139.047 13.6391C139.287 13.6276 139.553 13.6191 139.844 13.6076C140.134 13.5962 140.433 13.5905 140.745 13.5848C141.055 13.579 141.356 13.5762 141.647 13.5762C142.276 13.5762 142.814 13.6477 143.261 13.7906C143.705 13.9336 144.071 14.1309 144.356 14.3826C144.641 14.6313 144.848 14.9287 144.98 15.269C145.109 15.6093 145.177 15.9725 145.177 16.3556C145.177 16.9418 145.074 17.4308 144.87 17.8311C144.665 18.2286 144.367 18.5689 143.977 18.8434V18.8749C144.168 18.9492 144.351 19.0579 144.534 19.2009C144.714 19.3438 144.873 19.5211 145.015 19.727C145.155 19.9329 145.268 20.1788 145.354 20.4619C145.44 20.745 145.483 21.0653 145.483 21.4284C145.483 22.0146 145.384 22.5208 145.182 22.9526C144.983 23.3843 144.7 23.7418 144.342 24.0306C143.982 24.3166 143.56 24.531 143.073 24.6683C142.588 24.8055 142.058 24.877 141.488 24.877C141.238 24.877 140.969 24.877 140.678 24.8684C140.387 24.8627 140.105 24.857 139.83 24.8541C139.556 24.8484 139.298 24.8398 139.058 24.8313C138.819 24.8198 138.622 24.8055 138.472 24.7827V13.6763L138.461 13.6705ZM141.614 15.9696C141.464 15.9696 141.337 15.9753 141.232 15.9868C141.127 15.9982 141.004 16.0125 140.864 16.0354V18.0628H141.66C141.969 18.0628 142.233 17.9827 142.448 17.8226C142.664 17.6624 142.771 17.3822 142.771 16.9761C142.771 16.6359 142.65 16.3842 142.411 16.2184C142.171 16.0525 141.905 15.9725 141.614 15.9725M140.864 20.2961V22.3864C140.944 22.4092 141.041 22.4293 141.157 22.4493C141.273 22.4722 141.445 22.4807 141.676 22.4807C142.147 22.4807 142.497 22.3778 142.728 22.169C142.957 21.9603 143.073 21.6715 143.073 21.2998C143.073 20.948 142.957 20.6935 142.728 20.5334C142.497 20.3733 142.187 20.2932 141.797 20.2932H140.866L140.864 20.2961Z" fill="#509E2F" style="fill:#509E2F;fill:color(display-p3 0.3137 0.6196 0.1843);fill-opacity:1;"/>
    </g>
    <defs>
        <clipPath id="clip0_891_4452">
            <rect width="73" height="24" fill="white" style="fill:white;fill-opacity:1;" transform="translate(88 1)"/>
        </clipPath>
    </defs>
</svg>
